<svg width="69" height="48" viewBox="0 0 69 48" fill="none" xmlns="http://www.w3.org/2000/svg">
<g clip-path="url(#clip0_6964_109)" filter="url(#filter0_dd_6964_109)">
<path d="M27.8532 10.126V14.6163H24.081V11.9918L16.2396 5.51478L8.77063 11.6838V36.7927H24.9691V40H4V10.126L16.2594 0L27.8532 10.126Z" fill="#F0BA4E"/>
<path d="M27.8532 15.8076H11.354V20.0001H27.8532V15.8076Z" fill="#C9CFCC"/>
<path d="M11.354 23.1387H27.8532V27.5373H15.9266V30.1948H27.8532V34.4101H11.354V23.1387Z" fill="#C9CFCC"/>
<path d="M65 15.8076H48.5007V20.0001H65V15.8076Z" fill="#C9CFCC"/>
<path d="M48.5007 23.1387H65V27.5373H53.0734V30.1948H65V34.4101H48.5007V23.1387Z" fill="#C9CFCC"/>
<path d="M47.5579 25.0172C47.5581 27.1259 46.8138 29.1708 45.4494 30.8103C44.085 32.4498 42.1832 33.5846 40.0615 34.0252C37.9399 34.4657 35.727 34.1854 33.7924 33.2309C31.8579 32.2765 30.3189 30.7057 29.4325 28.781C28.5461 26.8564 28.366 24.6944 28.9223 22.6562C29.4786 20.618 30.7376 18.8271 32.489 17.5825C34.2404 16.338 36.3781 15.7153 38.545 15.8184C40.7119 15.9215 42.7768 16.7441 44.3948 18.149L40.7932 21.6495C39.9874 21.1228 39.0375 20.8429 38.0663 20.8461C37.0952 20.8494 36.1473 21.1356 35.3452 21.6677C34.5431 22.1999 33.9235 22.9535 33.5665 23.8314C33.2096 24.7092 33.1316 25.671 33.3427 26.5923C33.5537 27.5137 34.0442 28.3524 34.7507 29.0001C35.4571 29.6478 36.3472 30.0748 37.3058 30.2258C38.2645 30.3769 39.2477 30.2451 40.1285 29.8475C41.0093 29.45 41.7473 28.8048 42.247 27.9955H36.4327V24.4216H47.5381C47.5513 24.6189 47.5579 24.8175 47.5579 25.0172Z" fill="#C9CFCC"/>
</g>
<defs>
<filter id="filter0_dd_6964_109" x="0" y="0" width="69" height="48" filterUnits="userSpaceOnUse" color-interpolation-filters="sRGB">
<feFlood flood-opacity="0" result="BackgroundImageFix"/>
<feColorMatrix in="SourceAlpha" type="matrix" values="0 0 0 0 0 0 0 0 0 0 0 0 0 0 0 0 0 0 127 0" result="hardAlpha"/>
<feOffset dy="4"/>
<feGaussianBlur stdDeviation="2"/>
<feComposite in2="hardAlpha" operator="out"/>
<feColorMatrix type="matrix" values="0 0 0 0 0 0 0 0 0 0 0 0 0 0 0 0 0 0 0.25 0"/>
<feBlend mode="normal" in2="BackgroundImageFix" result="effect1_dropShadow_6964_109"/>
<feColorMatrix in="SourceAlpha" type="matrix" values="0 0 0 0 0 0 0 0 0 0 0 0 0 0 0 0 0 0 127 0" result="hardAlpha"/>
<feOffset dy="4"/>
<feGaussianBlur stdDeviation="2"/>
<feComposite in2="hardAlpha" operator="out"/>
<feColorMatrix type="matrix" values="0 0 0 0 0 0 0 0 0 0 0 0 0 0 0 0 0 0 0.25 0"/>
<feBlend mode="normal" in2="effect1_dropShadow_6964_109" result="effect2_dropShadow_6964_109"/>
<feBlend mode="normal" in="SourceGraphic" in2="effect2_dropShadow_6964_109" result="shape"/>
</filter>
<clipPath id="clip0_6964_109">
<rect width="61" height="40" fill="white" transform="translate(4)"/>
</clipPath>
</defs>
</svg>
