<svg width="69" height="48" viewBox="0 0 69 48" fill="none" xmlns="http://www.w3.org/2000/svg"><g clip-path="url(#clip0_6964_109)" filter="url(#filter0_dd_6964_109)"><path d="M27.853 10.126v4.49h-3.772v-2.624L16.24 5.515l-7.47 6.169v25.109h16.2V40H4V10.126L16.26 0l11.593 10.126z" fill="#F0BA4E"/><path d="M27.853 15.808H11.354V20h16.5v-4.192zm-16.499 7.331h16.5v4.398H15.926v2.658h11.926v4.215H11.354V23.14zM65 15.808H48.5V20H65v-4.192zm-16.5 7.331H65v4.398H53.073v2.658H65v4.215H48.5V23.14zm-.942 1.878a9.051 9.051 0 01-2.109 5.793 9.522 9.522 0 01-5.387 3.215 9.721 9.721 0 01-6.27-.794 9.329 9.329 0 01-4.36-4.45 8.972 8.972 0 01-.51-6.125 9.21 9.21 0 013.567-5.073 9.67 9.67 0 016.056-1.765 9.622 9.622 0 015.85 2.331l-3.602 3.5a4.957 4.957 0 00-2.727-.803 4.956 4.956 0 00-2.72.822 4.748 4.748 0 00-1.78 2.163 4.596 4.596 0 00-.223 2.761c.21.922.701 1.76 1.408 2.408a4.911 4.911 0 002.555 1.226 4.99 4.99 0 002.823-.378 4.81 4.81 0 002.118-1.852h-5.814v-3.574h11.105c.013.197.02.395.02.595z" fill="#C9CFCC"/></g><defs><clipPath id="clip0_6964_109"><path fill="#fff" transform="translate(4)" d="M0 0h61v40H0z"/></clipPath><filter id="filter0_dd_6964_109" x="0" y="0" width="69" height="48" filterUnits="userSpaceOnUse" color-interpolation-filters="sRGB"><feFlood flood-opacity="0" result="BackgroundImageFix"/><feColorMatrix in="SourceAlpha" values="0 0 0 0 0 0 0 0 0 0 0 0 0 0 0 0 0 0 127 0" result="hardAlpha"/><feOffset dy="4"/><feGaussianBlur stdDeviation="2"/><feComposite in2="hardAlpha" operator="out"/><feColorMatrix values="0 0 0 0 0 0 0 0 0 0 0 0 0 0 0 0 0 0 0.25 0"/><feBlend in2="BackgroundImageFix" result="effect1_dropShadow_6964_109"/><feColorMatrix in="SourceAlpha" values="0 0 0 0 0 0 0 0 0 0 0 0 0 0 0 0 0 0 127 0" result="hardAlpha"/><feOffset dy="4"/><feGaussianBlur stdDeviation="2"/><feComposite in2="hardAlpha" operator="out"/><feColorMatrix values="0 0 0 0 0 0 0 0 0 0 0 0 0 0 0 0 0 0 0.25 0"/><feBlend in2="effect1_dropShadow_6964_109" result="effect2_dropShadow_6964_109"/><feBlend in="SourceGraphic" in2="effect2_dropShadow_6964_109" result="shape"/></filter></defs></svg>